<?xml version="1.0" standalone="no"?>
<!DOCTYPE svg PUBLIC "-//W3C//DTD SVG 20010904//EN"
 "http://www.w3.org/TR/2001/REC-SVG-20010904/DTD/svg10.dtd">
<svg version="1.0" xmlns="http://www.w3.org/2000/svg"
 width="89.000000pt" height="89.000000pt" viewBox="0 0 89.000000 89.000000"
 preserveAspectRatio="xMidYMid meet">
<metadata>
Created by potrace 1.14, written by Peter Selinger 2001-2017
</metadata>
<g transform="translate(0.000000,89.000000) scale(0.100000,-0.100000)"
fill="#000000" stroke="none">
<path d="M220 809 c0 -5 -5 -7 -11 -3 -8 4 -8 0 0 -15 14 -25 23 -28 14 -4 -4
11 -3 14 5 9 8 -5 10 -2 6 8 -7 18 -14 21 -14 5z"/>
<path d="M650 800 c-6 -11 -8 -20 -6 -20 3 0 10 9 16 20 6 11 8 20 6 20 -3 0
-10 -9 -16 -20z"/>
<path d="M670 790 c-6 -11 -8 -20 -6 -20 3 0 10 9 16 20 6 11 8 20 6 20 -3 0
-10 -9 -16 -20z"/>
<path d="M702 778 c-7 -7 -12 -15 -12 -19 0 -9 27 -5 37 6 5 4 2 5 -6 0 -11
-6 -13 -4 -8 8 8 20 5 21 -11 5z"/>
<path d="M740 721 c0 -27 15 -34 30 -16 8 9 8 15 2 15 -6 0 -13 -6 -16 -12 -4
-7 -4 -3 -2 10 2 12 0 22 -5 22 -5 0 -9 -9 -9 -19z"/>
<path d="M353 714 c-6 -17 4 -31 39 -48 12 -6 23 -18 23 -26 0 -22 -37 -25
-52 -4 -12 17 -13 17 -13 -3 0 -17 6 -20 38 -19 32 1 37 4 37 25 0 17 -9 30
-29 41 -16 9 -31 21 -34 28 -6 19 46 14 57 -5 9 -16 10 -16 11 5 0 19 -5 22
-35 22 -23 0 -38 -6 -42 -16z"/>
<path d="M91 707 c2 -1 13 -9 24 -17 19 -14 19 -14 6 3 -7 9 -18 17 -24 17 -6
0 -8 -1 -6 -3z"/>
<path d="M457 702 c-2 -4 -2 -26 1 -49 3 -32 9 -43 21 -43 10 0 12 3 5 8 -12
8 -13 51 -1 68 4 7 0 14 -8 18 -8 3 -16 2 -18 -2z"/>
<path d="M80 686 c0 -2 8 -10 18 -17 15 -13 16 -12 3 4 -13 16 -21 21 -21 13z"/>
<path d="M796 647 c-16 -12 -16 -14 -3 -14 9 0 18 6 21 14 3 7 4 13 3 13 -2 0
-11 -6 -21 -13z"/>
<path d="M50 636 c0 -2 8 -10 18 -17 15 -13 16 -12 3 4 -13 16 -21 21 -21 13z"/>
<path d="M510 620 c0 -5 5 -10 10 -10 6 0 10 5 10 10 0 6 -4 10 -10 10 -5 0
-10 -4 -10 -10z"/>
<path d="M820 590 c-6 -11 -7 -20 -2 -20 6 0 12 9 15 20 3 11 3 20 1 20 -2 0
-8 -9 -14 -20z"/>
<path d="M30 586 c0 -2 7 -6 15 -10 8 -3 15 -1 15 4 0 6 -7 10 -15 10 -8 0
-15 -2 -15 -4z"/>
<path d="M555 476 c0 -72 3 -86 17 -90 14 -3 16 0 10 12 -5 10 -8 50 -6 90 2
49 -1 72 -9 72 -8 0 -12 -27 -12 -84z"/>
<path d="M23 535 c0 -8 9 -15 19 -15 17 0 18 2 4 15 -8 8 -16 15 -19 15 -2 0
-4 -7 -4 -15z"/>
<path d="M138 540 c-9 -6 -21 -25 -28 -44 -16 -50 4 -92 53 -109 25 -9 21 7
-5 18 -47 21 -49 106 -3 127 30 13 72 3 78 -20 3 -11 5 -8 6 9 1 23 -3 25 -41
27 -24 1 -51 -3 -60 -8z"/>
<path d="M490 541 c0 -17 18 -21 24 -6 3 9 0 15 -9 15 -8 0 -15 -4 -15 -9z"/>
<path d="M610 540 c0 -5 7 -10 15 -10 8 0 15 5 15 10 0 6 -7 10 -15 10 -8 0
-15 -4 -15 -10z"/>
<path d="M820 536 c0 -2 11 -6 25 -8 13 -3 22 -1 19 3 -5 9 -44 13 -44 5z"/>
<path d="M292 497 c-44 -20 -40 -91 6 -108 18 -7 29 -6 38 3 11 11 8 13 -19
13 -25 0 -33 5 -35 22 -3 17 3 22 25 26 l28 4 -27 2 c-32 1 -37 16 -10 29 23
13 42 4 42 -19 0 -10 5 -19 11 -19 17 0 6 31 -16 45 -15 10 -26 10 -43 2z"/>
<path d="M35 490 c-4 -6 -11 -8 -16 -5 -5 3 -6 -1 -2 -11 5 -15 7 -15 15 0 5
9 14 13 20 10 7 -4 8 -2 4 4 -9 15 -13 15 -21 2z"/>
<path d="M393 492 c-7 -4 -15 -22 -19 -39 -5 -24 -1 -36 15 -52 25 -25 31 -26
56 -8 16 13 15 14 -11 10 -24 -4 -32 0 -41 19 -15 34 0 68 32 68 14 0 24 -4
23 -9 -3 -8 2 -11 18 -11 4 0 1 7 -6 15 -13 16 -47 20 -67 7z"/>
<path d="M488 488 c15 -15 16 -80 1 -95 -9 -9 -7 -11 8 -7 20 6 21 11 14 107
-1 4 -9 7 -18 7 -13 0 -14 -3 -5 -12z"/>
<path d="M615 445 c0 -46 3 -55 18 -55 13 0 16 4 9 18 -5 9 -7 34 -5 55 2 25
-1 37 -9 37 -9 0 -13 -17 -13 -55z"/>
<path d="M682 488 c-15 -15 -16 -28 -2 -28 6 0 10 7 10 15 0 19 36 20 44 0 3
-10 -3 -17 -19 -21 -13 -3 -31 -14 -39 -23 -13 -15 -14 -20 -3 -35 12 -16 17
-17 37 -6 18 10 25 10 28 1 9 -28 17 3 12 51 -4 47 -8 53 -30 56 -14 2 -31 -3
-38 -10z m58 -51 c0 -19 -21 -37 -42 -37 -26 0 -22 29 5 40 31 12 37 12 37 -3z"/>
<path d="M840 480 c-8 -5 -10 -10 -5 -10 6 0 17 5 25 10 8 5 11 10 5 10 -5 0
-17 -5 -25 -10z"/>
<path d="M838 433 c6 -2 18 -2 25 0 6 3 1 5 -13 5 -14 0 -19 -2 -12 -5z"/>
<path d="M23 413 c9 -2 23 -2 30 0 6 3 -1 5 -18 5 -17 0 -22 -2 -12 -5z"/>
<path d="M828 413 c6 -2 18 -2 25 0 6 3 1 5 -13 5 -14 0 -19 -2 -12 -5z"/>
<path d="M208 403 c-10 -2 -18 -9 -18 -14 0 -6 8 -5 20 1 11 6 20 13 20 15 0
3 -1 4 -2 4 -2 -1 -11 -3 -20 -6z"/>
<path d="M41 346 c-6 -16 -10 -31 -7 -33 7 -8 28 37 23 50 -3 7 -10 -1 -16
-17z"/>
<path d="M827 340 c8 -30 21 -34 15 -5 -2 14 -8 25 -12 25 -5 0 -6 -9 -3 -20z"/>
<path d="M210 291 c0 -11 4 -22 9 -25 4 -3 6 6 3 19 -5 30 -12 33 -12 6z"/>
<path d="M260 303 c0 -7 5 -15 11 -19 8 -4 7 -9 -2 -15 -10 -6 -10 -9 -2 -9
19 0 22 14 7 35 -8 10 -14 14 -14 8z"/>
<path d="M300 290 c0 -20 2 -22 10 -10 9 13 10 13 10 0 0 -13 2 -13 9 -1 7 11
10 10 14 -5 3 -13 5 -10 6 10 1 22 -2 26 -12 17 -10 -8 -17 -7 -25 1 -9 9 -12
6 -12 -12z"/>
<path d="M387 289 c4 -13 8 -18 11 -10 2 7 -1 18 -6 23 -8 8 -9 4 -5 -13z"/>
<path d="M420 285 c0 -14 4 -25 9 -25 4 0 6 11 3 25 -2 14 -6 25 -8 25 -2 0
-4 -11 -4 -25z"/>
<path d="M467 290 c3 -11 7 -20 8 -20 1 0 5 9 8 20 3 12 0 20 -8 20 -8 0 -11
-8 -8 -20z"/>
<path d="M504 295 c-7 -17 3 -35 19 -34 9 0 9 2 0 6 -7 2 -13 11 -13 18 0 7 6
16 13 18 9 4 9 6 -1 6 -7 1 -15 -6 -18 -14z"/>
<path d="M550 293 c0 -11 7 -20 15 -20 18 0 16 28 -2 35 -8 2 -13 -5 -13 -15z"/>
<path d="M601 294 c0 -11 3 -14 6 -6 3 7 2 16 -1 19 -3 4 -6 -2 -5 -13z"/>
<path d="M636 294 c-4 -9 -4 -19 -1 -22 3 -3 5 1 5 8 0 9 5 7 15 -6 13 -18 14
-18 8 4 -7 29 -19 36 -27 16z"/>
<path d="M70 289 c0 -5 5 -7 10 -4 6 3 10 8 10 11 0 2 -4 4 -10 4 -5 0 -10 -5
-10 -11z"/>
<path d="M40 251 c0 -6 10 -16 23 -22 12 -6 31 -23 43 -37 21 -25 21 -25 26
-4 4 14 -1 30 -14 45 -15 16 -18 18 -14 5 9 -28 13 -44 9 -36 -9 15 -73 58
-73 49z"/>
<path d="M806 243 c2 -6 -2 -14 -9 -17 -8 -3 -9 -5 -1 -5 7 -1 22 8 35 20 22
19 22 19 2 10 -12 -6 -23 -8 -26 -3 -2 4 -2 2 -1 -5z"/>
<path d="M762 230 c-6 -11 -12 -29 -12 -41 0 -19 2 -20 16 -8 11 9 12 15 5 17
-9 3 -9 7 0 18 6 7 9 18 7 24 -2 6 -9 1 -16 -10z"/>
<path d="M795 200 c-3 -6 1 -7 9 -4 18 7 21 14 7 14 -6 0 -13 -4 -16 -10z"/>
<path d="M138 168 c-17 -17 -17 -18 0 -26 9 -5 31 -12 47 -16 l30 -7 -28 19
c-16 11 -28 22 -27 26 4 18 -7 20 -22 4z"/>
<path d="M724 171 c4 -5 1 -13 -5 -17 -6 -3 -15 -1 -19 6 -6 9 -18 3 -44 -23
-31 -32 -41 -36 -76 -33 -22 2 -43 -1 -46 -5 -3 -5 3 -9 12 -9 10 0 25 -7 35
-16 13 -11 27 -14 46 -9 26 6 27 7 8 18 -19 11 -19 11 5 17 14 4 30 3 37 -2 7
-5 14 -5 18 2 4 6 1 9 -6 8 -18 -4 -18 34 0 40 8 3 11 0 7 -7 -10 -16 39 -14
52 2 8 10 6 16 -10 26 -11 7 -17 8 -14 2z"/>
<path d="M197 148 c11 -13 18 -29 16 -35 -3 -8 5 -13 21 -13 14 0 26 -4 26
-10 0 -5 -7 -10 -16 -10 -8 0 -12 -5 -9 -10 10 -16 62 -12 69 5 3 8 15 15 26
15 11 0 20 4 20 8 0 4 -20 6 -45 5 -39 -2 -49 1 -80 32 -38 39 -61 48 -28 13z"/>
<path d="M615 130 c-3 -6 1 -7 9 -4 18 7 21 14 7 14 -6 0 -13 -4 -16 -10z"/>
<path d="M415 120 c-9 -15 4 -47 22 -54 17 -7 43 10 43 27 0 5 -8 3 -18 -6
-14 -13 -21 -14 -30 -5 -22 22 -14 38 18 34 17 -2 30 1 30 5 0 12 -57 11 -65
-1z"/>
</g>
</svg>
