<svg width="25" height="25" viewBox="0 0 25 25" fill="none" xmlns="http://www.w3.org/2000/svg">
<path fill-rule="evenodd" clip-rule="evenodd" d="M20.8337 1.04199C22.5596 1.04199 23.9587 2.44111 23.9587 4.16699V20.8337C23.9587 22.5596 22.5596 23.9587 20.8337 23.9587H4.16699C2.44111 23.9587 1.04199 22.5596 1.04199 20.8337V4.16699C1.04199 2.44111 2.44111 1.04199 4.16699 1.04199H20.8337ZM20.8337 3.12533C21.409 3.12533 21.8753 3.5917 21.8753 4.16699V20.8337C21.8753 21.409 21.409 21.8753 20.8337 21.8753H15.6253V14.5836H17.788C18.2364 14.5836 18.6344 14.2967 18.7763 13.8713L19.2377 12.4869C19.4064 11.981 19.0298 11.4586 18.4966 11.4586H15.6253V9.37524C15.6253 8.85441 16.1462 8.33358 16.667 8.33358H18.7503C19.3256 8.33358 19.792 7.8672 19.792 7.29191V6.57734C19.792 6.24086 19.5771 5.93918 19.2517 5.85332C17.8863 5.49298 16.667 5.49298 16.667 5.49298C14.0628 5.49298 12.5003 7.29191 12.5003 8.85441V11.4586H10.417C9.8417 11.4586 9.37533 11.9249 9.37533 12.5002V13.5419C9.37533 14.1172 9.84169 14.5836 10.417 14.5836H12.5003V21.8753H4.16699C3.5917 21.8753 3.12533 21.409 3.12533 20.8337V4.16699C3.12533 3.5917 3.5917 3.12533 4.16699 3.12533H20.8337Z" fill="white"/>
</svg>
