<svg width="54" height="60" viewBox="0 0 54 60" fill="none" xmlns="http://www.w3.org/2000/svg">
<path d="M22.7039 21.9145L17.3028 16.5584C16.9637 16.2222 16.4378 16.1842 16.056 16.4685L14.9542 17.2896L10.9668 11.6689L13.9028 9.48121C14.1225 9.31752 14.2653 9.06706 14.2966 8.79044C14.3279 8.51394 14.2448 8.23666 14.0674 8.02576L8.30157 1.17085C7.67568 0.426783 6.76648 0 5.8071 0C5.1079 0 4.43886 0.222978 3.87256 0.644995L1.35041 2.52446C-0.0237775 3.54836 -0.409172 5.51615 0.47278 7.00452L5.0574 14.7393C5.19852 14.9772 5.43025 15.1436 5.69648 15.1984C5.75996 15.2116 5.82397 15.2178 5.88777 15.2178C6.09139 15.2178 6.29176 15.1522 6.45905 15.0274L9.39493 12.8398L13.3824 18.4605L12.2806 19.2816C11.8989 19.5661 11.7719 20.0905 11.9795 20.5248L15.2853 27.4422C15.4116 27.7064 15.6452 27.8998 15.9237 27.9706C16.001 27.9902 16.0795 28 16.1578 28C16.3611 28 16.5615 27.9345 16.7292 27.8096L22.5998 23.4354C22.8319 23.2624 22.9775 22.9932 22.9976 22.6998C23.0177 22.4064 22.9101 22.119 22.7039 21.9145ZM9.03884 10.6433C9.03862 10.6434 9.0383 10.6435 9.03808 10.6439C9.03786 10.644 9.03765 10.6443 9.03743 10.6444L6.17011 12.781L2.13342 5.97075C1.77203 5.361 1.92991 4.55464 2.49297 4.13517L5.01512 2.25582C5.24707 2.08282 5.52108 1.99151 5.8071 1.99151C6.2005 1.99151 6.57335 2.16639 6.82985 2.47126L11.9063 8.50673L9.03884 10.6433ZM16.5216 25.5021L14.0834 20.4001L16.5381 18.5712L20.5216 22.5214L16.5216 25.5021Z" fill="#BE868C"/>
<path d="M28.8714 11.1018C28.7142 11.2792 28.561 11.473 28.4127 11.6843C28.2643 11.473 28.1111 11.2792 27.9539 11.1017C28.1111 10.9243 28.2643 10.7306 28.4126 10.5193C28.561 10.7306 28.7142 10.9243 28.8714 11.1018Z" stroke="#BE868C"/>
<path d="M47.9165 19.6343C47.4309 20.1815 46.9578 20.78 46.4999 21.4337C46.0421 20.78 45.569 20.1814 45.0834 19.6342C45.5689 19.0871 46.042 18.4886 46.4998 17.8348C46.9577 18.4886 47.4308 19.0871 47.9165 19.6343Z" stroke="#BE868C" stroke-width="3"/>
<path d="M3.30969 37.3241C3.20416 37.4458 3.10081 37.576 2.99998 37.7151C2.89915 37.576 2.7958 37.4458 2.69026 37.3241C2.79577 37.2023 2.89912 37.0721 2.99995 36.933C3.10079 37.0721 3.20415 37.2023 3.30969 37.3241Z" stroke="#BE868C"/>
<path d="M53.38 57.9007L50.4073 39.9838C50.4037 39.951 50.3974 39.9192 50.3911 39.8874L49.1498 32.4123C49.0523 31.8254 48.5449 31.3952 47.9499 31.3952C46.4182 31.3952 44.9716 32.0655 43.981 33.2337C43.2861 34.0533 42.8713 35.0542 42.7712 36.1003C41.9341 36.7462 41.2264 37.5217 40.6649 38.3852L40.5775 37.8588C40.5775 37.8553 40.578 37.8516 40.578 37.8481C40.578 37.7485 40.566 37.6515 40.5435 37.5588L39.3127 30.1418C39.2152 29.5549 38.7078 29.1247 38.1128 29.1247C36.5811 29.1247 35.1345 29.795 34.1439 30.9632C33.4767 31.7502 33.0677 32.7046 32.9475 33.7054C32.0908 34.3578 31.3677 35.1446 30.7964 36.0227L28.9515 24.9029C28.8541 24.316 28.3467 23.8857 27.7516 23.8857C26.2199 23.8857 24.7733 24.5559 23.7827 25.7242C23.1372 26.4858 22.7339 27.4041 22.5995 28.3692C21.7363 29.0246 21.0083 29.8157 20.434 30.699L20.3416 30.1419C20.2441 29.5551 19.7367 29.1248 19.1418 29.1248C17.6101 29.1248 16.1635 29.7951 15.1729 30.9633C14.9449 31.2323 14.7482 31.5216 14.5817 31.8249C13.137 31.8893 11.786 32.5482 10.8459 33.6572C9.85557 34.8255 9.43115 36.3624 9.68188 37.8733L13.0708 58.2987C13.1683 58.8856 13.6757 59.3159 14.2707 59.3159H23.7475H23.7494H33.2241H33.2266H42.7011H42.703H52.1798C52.5372 59.3159 52.8765 59.1587 53.1076 58.8862C53.339 58.6136 53.4386 58.2532 53.38 57.9007ZM45.8366 34.8069C46.1398 34.449 46.5235 34.1791 46.9498 34.0142L47.7609 38.9025H45.5237L45.2167 37.0521C45.2024 36.9659 45.1943 36.8798 45.1881 36.7937C45.1865 36.7698 45.1846 36.7461 45.1832 36.7213C45.1522 36.0269 45.3813 35.3439 45.8366 34.8069ZM35.9995 32.5365C36.3027 32.1788 36.6864 31.9087 37.1127 31.7438L37.9238 36.6321H35.6866L35.3794 34.7817C35.3649 34.6941 35.3565 34.6063 35.3504 34.5186C35.3483 34.488 35.3472 34.457 35.3461 34.4259C35.3216 33.7403 35.5497 33.0669 35.9995 32.5365ZM25.6382 27.2975C25.9416 26.9397 26.3251 26.6698 26.7514 26.5049L27.5625 31.393H25.3253C25.3253 31.393 24.9936 29.3583 24.9877 29.2661C24.9858 29.2357 24.9858 29.2048 24.9847 29.1742C24.9637 28.493 25.1914 27.8247 25.6382 27.2975ZM17.0287 32.5365C17.332 32.1788 17.7155 31.9087 18.1419 31.7438L18.9529 36.6321H16.7159C16.7159 36.6321 16.3823 34.5867 16.3766 34.4895C16.3763 34.4846 16.3758 34.4798 16.3755 34.4749C16.3377 33.7723 16.5682 33.0798 17.0287 32.5365ZM15.3021 56.8834V56.8836L12.0818 37.4754C11.9483 36.6707 12.1743 35.8526 12.7016 35.2303C13.0341 34.8383 13.4631 34.5513 13.9391 34.393C13.9393 34.4094 13.9413 34.4257 13.9417 34.4423C13.9523 34.8832 14.4849 38.0474 14.4849 38.0474C14.5335 38.3409 14.6848 38.595 14.8982 38.776C15.1116 38.957 15.3873 39.0645 15.6848 39.0645H19.3566L22.313 56.8834H15.3021ZM24.7808 56.8832L21.5986 37.7045C21.5975 37.6946 21.5952 37.6851 21.5937 37.6752L21.4474 36.7935C21.1479 34.8722 21.6889 32.9448 22.8724 31.4707L23.0943 32.8082C23.1918 33.3951 23.6992 33.8253 24.2942 33.8253H27.9661L29.3979 42.4551C29.4045 42.4983 29.4097 42.5413 29.417 42.5845L31.7895 56.8832H24.7808ZM34.2579 56.8837L31.8049 42.099C31.5117 40.1779 32.0577 38.2526 33.2458 36.7824L33.4556 38.0475C33.5531 38.6344 34.0605 39.0647 34.6555 39.0647H38.3117L39.272 44.8516C39.2768 44.8829 39.2805 44.9144 39.2858 44.9459L41.2666 56.8837H34.2579ZM43.7341 56.8834L41.6765 44.4838C41.3768 42.5645 41.9176 40.6357 43.1006 39.1606L43.2621 40.1338L43.2926 40.3176C43.3901 40.9045 43.8976 41.3348 44.4925 41.3348H48.1652L50.745 56.8833H43.7341V56.8834Z" fill="#BE868C"/>
</svg>
