<svg width="52" height="59" viewBox="0 0 52 59" fill="none" xmlns="http://www.w3.org/2000/svg">
<path d="M13 0C14.0214 0 14.8571 0.829687 14.8571 1.84375V7.375H37.1429V1.84375C37.1429 0.829687 37.9786 0 39 0C40.0214 0 40.8571 0.829687 40.8571 1.84375V7.375H44.5714C48.6687 7.375 52 10.6822 52 14.75V18.4375V22.125V51.625C52 55.6928 48.6687 59 44.5714 59H7.42857C3.33125 59 0 55.6928 0 51.625V22.125V18.4375V14.75C0 10.6822 3.33125 7.375 7.42857 7.375H11.1429V1.84375C11.1429 0.829687 11.9786 0 13 0ZM48.2857 22.125H3.71429V51.625C3.71429 53.6646 5.37411 55.3125 7.42857 55.3125H44.5714C46.6259 55.3125 48.2857 53.6646 48.2857 51.625V22.125ZM44.5714 11.0625H7.42857C5.37411 11.0625 3.71429 12.7104 3.71429 14.75V18.4375H48.2857V14.75C48.2857 12.7104 46.6259 11.0625 44.5714 11.0625Z" fill="#BE868C"/>
</svg>
