<svg width="35" height="37" viewBox="0 0 35 37" fill="none" xmlns="http://www.w3.org/2000/svg">
<path id="Vector" d="M32.8125 32.3746C32.8125 33.6537 31.8349 34.6871 30.625 34.6871H15.3123V35.8433C15.3123 36.2408 15.2439 36.631 15.1277 36.9996H30.625C33.0381 36.9996 35 34.9256 35 32.3746V11.8442C35 10.9264 34.6514 10.0448 34.0361 9.39442L26.12 1.01893C25.5048 0.36855 24.6708 0 23.8026 0H13.1248C10.7117 0 8.74974 2.074 8.74974 4.62494V9.76297L8.75658 9.75574C8.85912 9.70516 9.03002 9.61121 9.20776 9.53895C9.76831 9.29325 10.363 9.20653 10.9373 9.24989V4.62494C10.9373 3.34586 11.9148 2.31247 13.1248 2.31247H21.8749V10.4061C21.8749 12.3211 23.3446 13.8748 25.1562 13.8748H32.8125V32.3746ZM32.7783 11.5624H25.1562C24.5546 11.5624 24.0624 11.0421 24.0624 10.4061V2.3486C24.2538 2.39919 24.4315 2.50036 24.5683 2.65212L32.4912 11.0276C32.6347 11.1794 32.7304 11.36 32.7783 11.5624ZM4.77119 25.9069L4.0329 25.7985L3.93036 25.0181C3.83466 24.2665 3.45868 23.5872 2.89812 23.1247L2.31023 22.6405L2.5905 21.9107C2.86394 21.2097 2.86394 20.422 2.5905 19.7211L2.31023 18.9912L2.89812 18.507L1.55827 16.6715L0.635405 17.4303C0.0543448 17.9072 -0.157571 18.7383 0.122705 19.4537L0.560209 20.5955C0.614897 20.7328 0.614897 20.8917 0.560209 21.029L0.122705 22.1708C-0.157571 22.8935 0.0543448 23.7173 0.635405 24.1942L1.55827 24.9458C1.67448 25.0397 1.74284 25.177 1.76335 25.3216L1.92057 26.5428C2.02311 27.3161 2.5905 27.9231 3.32195 28.0243L4.3747 28.1833V35.8433C4.3747 36.2697 4.59345 36.6599 4.95576 36.8623C5.31807 37.0646 5.7419 37.0429 6.07687 36.8044L8.74974 34.9183L11.4226 36.8044C11.7576 37.0429 12.1883 37.0646 12.5437 36.8623C12.8992 36.6599 13.1248 36.2697 13.1248 35.8433V28.1833L14.1775 28.0315C14.909 27.9231 15.4832 27.3233 15.5789 26.5501L15.7361 25.3288L13.5691 25.0181L13.4666 25.7985L12.7283 25.9069C12.0174 26.0081 11.3748 26.4055 10.9373 26.9981L10.4793 27.6196L9.78882 27.3233C9.12572 27.0342 8.3806 27.0342 7.71751 27.3233L7.02707 27.6196L6.56222 26.9981C6.12472 26.3983 5.48213 26.0081 4.77119 25.9069ZM1.55827 16.6787L2.89812 18.4998C3.46551 18.0373 3.83466 17.358 3.93036 16.6064L4.0329 15.826L4.77119 15.7176C5.48213 15.6164 6.12472 15.219 6.56222 14.6264L7.02023 14.0049L7.71067 14.3012C8.37376 14.5903 9.11889 14.5903 9.78198 14.3012L10.4724 14.0049L10.9304 14.6264C11.3679 15.2262 12.0105 15.6164 12.7215 15.7176L13.4666 15.826L13.5691 16.6064C13.6648 17.358 14.0408 18.0373 14.6014 18.4998L15.1893 18.984L14.909 19.7138C14.6355 20.4148 14.6355 21.2025 14.909 21.9035L15.1893 22.6333L14.6014 23.1175C14.034 23.58 13.6648 24.2593 13.5691 25.0108L15.7361 25.3216C15.7566 25.1698 15.8318 25.0325 15.9412 24.9458L16.8641 24.1942C17.4451 23.7173 17.6571 22.8862 17.3768 22.1708L16.9393 21.029C16.8846 20.8917 16.8846 20.7328 16.9393 20.5955L17.3836 19.4537C17.6639 18.731 17.452 17.9072 16.8709 17.4303L15.9481 16.6787C15.8318 16.5848 15.7635 16.4475 15.743 16.3029L15.5857 15.0817C15.4832 14.3084 14.9158 13.7014 14.1844 13.6002L13.0291 13.434C12.8855 13.4123 12.7556 13.3328 12.6736 13.2172L11.9627 12.2416C11.5115 11.6274 10.7253 11.4034 10.0486 11.6997L8.95482 12.1549C8.82494 12.2127 8.67455 12.2127 8.54466 12.1549L7.46457 11.6852C6.78097 11.3889 6.00167 11.6129 5.55049 12.2272L4.83271 13.21C4.74384 13.3328 4.61396 13.4051 4.47724 13.4268L3.32195 13.593C2.5905 13.7014 2.01628 14.3012 1.92057 15.0744L1.76335 16.2957C1.74284 16.4475 1.66764 16.5848 1.55827 16.6715V16.6787ZM10.9373 33.6826L9.35815 32.5697C8.989 32.3096 8.51048 32.3096 8.14134 32.5697L6.56222 33.6826V30.0332C6.85617 30.091 7.17063 30.0549 7.46457 29.9321L8.54466 29.4623C8.67455 29.4045 8.82494 29.4045 8.95482 29.4623L10.0349 29.9321C10.3289 30.0621 10.6433 30.091 10.9373 30.0332V33.6826Z" fill="#BE868C"/>
</svg>
