<svg width="37" height="37" viewBox="0 0 37 37" fill="none" xmlns="http://www.w3.org/2000/svg">
<path d="M34.5213 20.8125H31.7535C31.3055 20.8125 30.8646 20.6535 30.5178 20.3645L29.3687 19.4105C29.0363 19.1359 28.993 18.6518 29.2604 18.3121C30.3154 16.9896 29.376 15.0312 27.685 15.0312H27.4176C26.9623 15.0312 26.5938 14.6627 26.5938 14.2074V13.5281C26.5938 12.1984 24.9895 11.5336 24.05 12.473L21.7303 14.7928C21.5424 14.9807 21.2389 14.9807 21.051 14.7928L20.8486 14.5904C20.3934 14.1352 19.7791 13.8822 19.1359 13.8822C18.3771 13.8822 17.6545 14.2436 17.1992 14.8506L16.426 15.884C16.2814 16.0791 16.0502 16.1947 15.8117 16.1947C15.3854 16.1947 15.0385 15.8479 15.0385 15.4215V15.3059C15.0385 15.0674 15.1324 14.8434 15.2986 14.6771L16.65 13.3258C17.098 12.8777 17.351 12.2635 17.351 11.6275C17.351 11.3168 17.5244 11.035 17.799 10.8977L22.0771 8.75859C23.5369 8.02871 24.0211 6.18594 23.1033 4.83457C22.4602 3.88066 21.2895 3.4543 20.2127 3.72891L20.5379 2.44258C28.5088 3.43262 34.6875 10.2473 34.6875 18.5C34.6875 19.2877 34.6297 20.0537 34.5213 20.8125ZM34.0154 23.125C33.777 23.9199 33.4807 24.6932 33.1266 25.4375H31.6957C30.9586 25.4375 30.2432 25.1412 29.7229 24.6209L29.4338 24.3318C28.6605 23.5586 27.6199 23.125 26.5287 23.125C26.1023 23.125 25.6832 22.9732 25.3652 22.6914L23.443 21.0438C22.3951 20.1477 21.0582 19.649 19.6779 19.649H18.1676C17.0258 19.649 15.9129 19.9887 14.959 20.6174L12.9789 21.9398C11.3674 23.0094 10.4062 24.816 10.4062 26.7527V26.984C10.4062 28.516 11.0133 29.9902 12.0973 31.0742L13.2535 32.2305C14.0846 33.0615 15.2119 33.524 16.3826 33.524C17.2064 33.524 17.9146 33.9937 18.2688 34.6803C9.43789 34.5646 2.3125 27.3598 2.3125 18.5C2.3125 9.66914 9.38731 2.48594 18.1748 2.3125L17.6762 4.30703C17.3221 5.73066 18.7891 6.92305 20.1115 6.27988L20.6969 5.99805C20.8703 5.91133 21.0799 5.96914 21.1883 6.12813C21.3184 6.32324 21.2461 6.5834 21.0438 6.6918L16.7656 8.83086C15.7033 9.3584 15.0385 10.4424 15.0385 11.6275C15.0385 11.6492 15.0312 11.6709 15.0096 11.6926L13.6582 13.0367C13.0584 13.6365 12.7188 14.4531 12.7188 15.2986V15.4143C12.7188 17.1197 14.099 18.5 15.8045 18.5C16.7729 18.5 17.6906 18.0447 18.2688 17.2643L19.042 16.2309C19.0637 16.202 19.0926 16.1875 19.1287 16.1875C19.1576 16.1875 19.1865 16.202 19.2082 16.2164L19.4105 16.4187C20.5018 17.51 22.2723 17.51 23.3635 16.4187L24.4764 15.3059C24.8955 16.4115 25.9217 17.2209 27.143 17.3293C26.4564 18.6012 26.7383 20.2199 27.8873 21.1811L29.0363 22.135C29.7951 22.7709 30.7562 23.1178 31.7463 23.1178H34.0082L34.0154 23.125ZM31.7824 27.75C29.2459 31.385 25.2641 33.9287 20.668 34.543C20.1766 32.6352 18.4422 31.2188 16.3826 31.2188C15.8189 31.2188 15.2842 30.9947 14.8867 30.5973L13.7305 29.441C13.0801 28.7906 12.7115 27.909 12.7115 26.9912V26.76C12.7115 25.5965 13.2896 24.5197 14.258 23.8766L16.2381 22.5541C16.809 22.1711 17.4738 21.9688 18.1604 21.9688H19.6707C20.5018 21.9688 21.2967 22.265 21.9254 22.807L23.8477 24.4547C24.592 25.0906 25.5387 25.4447 26.5215 25.4447C26.9984 25.4447 27.4537 25.6326 27.7861 25.9723L28.0752 26.2613C29.0291 27.2152 30.3299 27.7572 31.6812 27.7572H31.768L31.7824 27.75ZM18.5 37C23.4065 37 28.1121 35.0509 31.5815 31.5815C35.0509 28.1121 37 23.4065 37 18.5C37 13.5935 35.0509 8.88795 31.5815 5.41852C28.1121 1.9491 23.4065 0 18.5 0C13.5935 0 8.88795 1.9491 5.41852 5.41852C1.9491 8.88795 0 13.5935 0 18.5C0 23.4065 1.9491 28.1121 5.41852 31.5815C8.88795 35.0509 13.5935 37 18.5 37ZM13.5354 7.27715C13.0873 6.8291 12.3502 6.8291 11.9021 7.27715L9.58965 9.58965C9.1416 10.0377 9.1416 10.7748 9.58965 11.2229C10.0377 11.6709 10.7748 11.6709 11.2229 11.2229L13.5354 8.91035C13.9834 8.46231 13.9834 7.72519 13.5354 7.27715Z" fill="#BE868C"/>
</svg>
