<svg width="60" height="60" viewBox="0 0 60 60" fill="none" xmlns="http://www.w3.org/2000/svg">
<path id="Vector" d="M30 0C28.9688 0 28.125 0.84375 28.125 1.875V13.125C28.125 14.1562 28.9688 15 30 15C31.0312 15 31.875 14.1562 31.875 13.125V3.82031C45.4922 4.78125 56.25 16.1367 56.25 30C56.25 44.4961 44.4961 56.25 30 56.25C15.5039 56.25 3.75 44.4961 3.75 30C3.75 24.5391 5.41406 19.4648 8.27344 15.2578C8.85938 14.4023 8.63672 13.2305 7.78125 12.6562C6.92578 12.082 5.75391 12.293 5.17969 13.1484C1.91016 17.9531 0 23.7539 0 30C0 46.5703 13.4297 60 30 60C46.5703 60 60 46.5703 60 30C60 13.4297 46.5703 0 30 0ZM20.0742 17.4258C19.3477 16.6992 18.1523 16.6992 17.4258 17.4258C16.6992 18.1523 16.6992 19.3477 17.4258 20.0742L28.6758 31.3242C29.4023 32.0508 30.5977 32.0508 31.3242 31.3242C32.0508 30.5977 32.0508 29.4023 31.3242 28.6758L20.0742 17.4258Z" fill="#BE868C"/>
</svg>
