<svg width="66" height="56" viewBox="0 0 66 56" fill="none" xmlns="http://www.w3.org/2000/svg">
<path d="M28.6 27.6999C29.2075 27.6999 29.6999 27.2075 29.6999 26.6C29.6999 25.9925 29.2075 25.5 28.6 25.5C27.9925 25.5 27.5 25.9925 27.5 26.6C27.5 27.2075 27.9925 27.6999 28.6 27.6999Z" fill="#BE868C"/>
<path d="M15.3998 14.5002C16.0073 14.5002 16.4997 14.0077 16.4997 13.4003C16.4997 12.7928 16.0073 12.3003 15.3998 12.3003C14.7923 12.3003 14.2998 12.7928 14.2998 13.4003C14.2998 14.0077 14.7923 14.5002 15.3998 14.5002Z" fill="#BE868C"/>
<path d="M28.6 14.5002C29.2075 14.5002 29.6999 14.0077 29.6999 13.4003C29.6999 12.7928 29.2075 12.3003 28.6 12.3003C27.9925 12.3003 27.5 12.7928 27.5 13.4003C27.5 14.0077 27.9925 14.5002 28.6 14.5002Z" fill="#BE868C"/>
<path d="M21.9994 21.1003C22.6069 21.1003 23.0993 20.6078 23.0993 20.0004C23.0993 19.3929 22.6069 18.9004 21.9994 18.9004C21.3919 18.9004 20.8994 19.3929 20.8994 20.0004C20.8994 20.6078 21.3919 21.1003 21.9994 21.1003Z" fill="#BE868C"/>
<path d="M55.0002 22H56.1002V26.3999H53.9001C53.293 26.3999 52.8002 26.8927 52.8002 27.4999C52.8002 28.107 53.293 28.5998 53.9001 28.5998H60.5001C61.1073 28.5998 61.6001 28.107 61.6001 27.4999C61.6001 26.8927 61.1073 26.3999 60.5001 26.3999H58.3001V22H59.4C61.2194 22 62.7 20.5193 62.7 18.7V5.49993C62.7 3.68054 61.2194 2.19992 59.4 2.19992H58.3001V1.09996C58.3001 0.49281 57.8073 0 57.2001 0C56.593 0 56.1002 0.49281 56.1002 1.09996V2.19992H55.0002C53.1808 2.19992 51.7002 3.68054 51.7002 5.49993V18.7C51.7002 20.5193 53.1808 22 55.0002 22ZM53.9001 5.49993C53.9001 4.89381 54.394 4.39997 55.0001 4.39997H59.4002C60.0063 4.39997 60.5001 4.89381 60.5001 5.49993V18.7C60.5001 19.3061 60.0063 19.7999 59.4002 19.7999H55.0002C54.3941 19.7999 53.9002 19.3061 53.9002 18.7V5.49993H53.9001Z" fill="#BE868C"/>
<path d="M5.4001 23.4C6.00725 23.4 6.50006 22.9072 6.50006 22.3V19C6.50006 13.5418 11.0389 4.59995 16.4971 4.59995H27.4971C32.9552 4.59995 37.3001 13.5418 37.3001 19V22.3C37.3001 22.9072 37.7929 23.4 38.4 23.4C39.0072 23.4 39.5 22.9072 39.5 22.3V19C39.5 12.3284 34.1685 2.3999 27.497 2.3999H16.4971C9.82554 2.3999 4.30001 12.3284 4.30001 19V22.3C4.30001 22.9072 4.79282 23.4 5.4001 23.4Z" fill="#BE868C"/>
<path d="M57.2005 47.5002C57.808 47.5002 58.3005 47.0077 58.3005 46.4003C58.3005 45.7928 57.808 45.3003 57.2005 45.3003C56.5931 45.3003 56.1006 45.7928 56.1006 46.4003C56.1006 47.0077 56.5931 47.5002 57.2005 47.5002Z" fill="#BE868C"/>
<path d="M57.2005 36.5002C57.808 36.5002 58.3005 36.0077 58.3005 35.4003C58.3005 34.7928 57.808 34.3003 57.2005 34.3003C56.5931 34.3003 56.1006 34.7928 56.1006 35.4003C56.1006 36.0077 56.5931 36.5002 57.2005 36.5002Z" fill="#BE868C"/>
<path d="M64.9004 28.8003H49.5003C48.8932 28.8003 48.4004 29.2931 48.4004 29.9003V54.1003C48.4004 54.7074 48.8932 55.2002 49.5003 55.2002C50.1075 55.2002 50.6003 54.7074 50.6003 54.1003V53.0003H63.8003V54.1003C63.8003 54.7074 64.2931 55.2002 64.9003 55.2002C65.5074 55.2002 66.0003 54.7074 66.0003 54.1003V29.9003C66.0004 29.2931 65.5076 28.8003 64.9004 28.8003ZM63.8003 50.8003H50.6003V42.0002H63.8003V50.8003ZM63.8003 39.8003H50.6003V31.0002H63.8003V39.8003Z" fill="#BE868C"/>
<path d="M15.3998 27.6999C16.0073 27.6999 16.4997 27.2075 16.4997 26.6C16.4997 25.9925 16.0073 25.5 15.3998 25.5C14.7923 25.5 14.2998 25.9925 14.2998 26.6C14.2998 27.2075 14.7923 27.6999 15.3998 27.6999Z" fill="#BE868C"/>
<path d="M40.7 20C38.8807 20 37.4 21.4806 37.4 23.3V29.9C37.4 31.7194 35.9194 33.2 34.1 33.2H9.90002C8.08063 33.2 6.60001 31.7194 6.60001 29.9V23.3C6.60001 21.4806 5.11939 20 3.30001 20C1.48062 20 0 21.4806 0 23.3V32.1001C0 38.7716 5.42851 44.2001 12.1001 44.2001H31.9001C38.5717 44.2001 44.0002 38.7716 44.0002 32.1001V23.3C44 21.4806 42.5194 20 40.7 20ZM41.8001 32.1001C41.8001 37.5582 37.3583 42.0001 31.9001 42.0001H12.1001C6.64191 42.0001 2.20005 37.5582 2.20005 32.1001V23.3C2.20005 22.6939 2.69389 22.2 3.30001 22.2C3.90613 22.2 4.39997 22.6939 4.39997 23.3V29.9C4.39997 32.9327 6.86724 35.4001 9.90002 35.4001H34.1C37.1327 35.4001 39.6001 32.9328 39.6001 29.9V23.3C39.6001 22.6939 40.0939 22.2 40.7 22.2C41.3062 22.2 41.8 22.6939 41.8 23.3V32.1001H41.8001Z" fill="#BE868C"/>
<path d="M31.4607 53.22L22.6606 46.62C22.6429 46.6069 22.6221 46.6045 22.6034 46.5925C22.5385 46.5496 22.4702 46.5232 22.3988 46.4957C22.335 46.4705 22.2756 46.4429 22.2096 46.4297C22.1402 46.4166 22.072 46.4198 22.0006 46.4198C21.9313 46.4198 21.8631 46.4165 21.7938 46.4297C21.7267 46.4429 21.6662 46.4715 21.6024 46.4957C21.532 46.5232 21.4638 46.5496 21.3989 46.5925C21.3812 46.6047 21.3593 46.6069 21.3406 46.62L12.5405 53.22C12.0543 53.5842 11.9565 54.2738 12.3205 54.7601C12.536 55.0483 12.8672 55.2 13.2016 55.2C13.4304 55.2 13.6624 55.1285 13.8604 54.98L22.0005 48.875L30.1405 54.98C30.3385 55.1285 30.5707 55.2 30.7994 55.2C31.1338 55.2 31.4649 55.0482 31.6804 54.7601C32.0449 54.2738 31.9469 53.584 31.4607 53.22Z" fill="#BE868C"/>
</svg>
