<svg width="57" height="60" viewBox="0 0 57 60" fill="none" xmlns="http://www.w3.org/2000/svg">
<path d="M53.4375 52.4994C53.4375 54.5736 51.8455 56.2493 49.8749 56.2493H24.9372V58.1243C24.9372 58.7688 24.8259 59.4016 24.6366 59.9993H49.8749C53.8049 59.9993 57 56.636 57 52.4994V19.2068C57 17.7185 56.4322 16.2889 55.4303 15.2342L42.5383 1.65232C41.5364 0.597649 40.1782 0 38.7643 0H21.3747C17.4447 0 14.2496 3.36324 14.2496 7.49991V15.8318L14.2607 15.8201C14.4277 15.7381 14.706 15.5858 14.9955 15.4686C15.9084 15.0701 16.877 14.9295 17.8121 14.9998V7.49991C17.8121 5.42572 19.4041 3.74996 21.3747 3.74996H35.6248V16.8748C35.6248 19.9802 38.0184 22.4997 40.9686 22.4997H53.4375V52.4994ZM53.3818 18.7498H40.9686C39.9889 18.7498 39.1873 17.906 39.1873 16.8748V3.80855C39.499 3.89058 39.7885 4.05464 40.0112 4.30073L52.9142 17.8826C53.148 18.1287 53.3039 18.4217 53.3818 18.7498ZM7.77022 42.0112L6.56787 41.8354L6.40087 40.5698C6.24501 39.3511 5.6327 38.2495 4.7198 37.4996L3.76237 36.7144L4.21882 35.5308C4.66414 34.3941 4.66414 33.1168 4.21882 31.9801L3.76237 30.7965L4.7198 30.0114L2.53775 27.0348L1.0348 28.2653C0.0885044 29.0387 -0.256616 30.3864 0.199834 31.5465L0.912341 33.398C1.0014 33.6207 1.0014 33.8785 0.912341 34.1012L0.199834 35.9527C-0.256616 37.1246 0.0885044 38.4605 1.0348 39.2339L2.53775 40.4526C2.72701 40.605 2.83834 40.8276 2.87173 41.062L3.12779 43.0425C3.29479 44.2963 4.21882 45.2807 5.41004 45.4448L7.12451 45.7026V58.1243C7.12451 58.8157 7.48076 59.4485 8.07081 59.7766C8.66085 60.1048 9.3511 60.0696 9.89661 59.6829L14.2496 56.6243L18.6026 59.6829C19.1481 60.0696 19.8494 60.1048 20.4284 59.7766C21.0073 59.4485 21.3747 58.8157 21.3747 58.1243V45.7026L23.0891 45.4565C24.2803 45.2807 25.2155 44.3081 25.3714 43.0542L25.6274 41.0737L22.0983 40.5698L21.9313 41.8354L20.7289 42.0112C19.5711 42.1753 18.5246 42.8198 17.8121 43.7807L17.0662 44.7885L15.9418 44.3081C14.8619 43.8393 13.6484 43.8393 12.5685 44.3081L11.4441 44.7885L10.687 43.7807C9.97454 42.8081 8.92804 42.1753 7.77022 42.0112ZM2.53775 27.0466L4.7198 29.9996C5.64383 29.2497 6.24501 28.1481 6.40087 26.9294L6.56787 25.6638L7.77022 25.488C8.92804 25.3239 9.97454 24.6794 10.687 23.7185L11.433 22.7107L12.5574 23.1911C13.6373 23.6599 14.8508 23.6599 15.9307 23.1911L17.0551 22.7107L17.801 23.7185C18.5135 24.6911 19.56 25.3239 20.7178 25.488L21.9313 25.6638L22.0983 26.9294C22.2542 28.1481 22.8665 29.2497 23.7794 29.9996L24.7368 30.7848L24.2803 31.9684C23.835 33.1051 23.835 34.3824 24.2803 35.5191L24.7368 36.7027L23.7794 37.4878C22.8553 38.2378 22.2542 39.3394 22.0983 40.5581L25.6274 41.062C25.6608 40.8159 25.7833 40.5933 25.9614 40.4526L27.4644 39.2339C28.4107 38.4605 28.7558 37.1128 28.2993 35.9527L27.5868 34.1012C27.4978 33.8785 27.4978 33.6207 27.5868 33.398L28.3105 31.5465C28.7669 30.3746 28.4218 29.0387 27.4755 28.2653L25.9725 27.0466C25.7833 26.8942 25.672 26.6716 25.6386 26.4372L25.3825 24.4567C25.2155 23.2028 24.2915 22.2185 23.1003 22.0544L21.2188 21.7849C20.985 21.7497 20.7735 21.6208 20.6399 21.4333L19.4821 19.8513C18.7473 18.8552 17.467 18.492 16.3648 18.9724L14.5836 19.7107C14.372 19.8045 14.1271 19.8045 13.9156 19.7107L12.1566 18.949C11.0433 18.4685 9.77415 18.8318 9.03937 19.8279L7.87042 21.4216C7.72569 21.6208 7.51416 21.738 7.29151 21.7732L5.41004 22.0427C4.21882 22.2185 3.28365 23.1911 3.12779 24.445L2.87173 26.4255C2.83834 26.6716 2.71587 26.8942 2.53775 27.0348V27.0466ZM17.8121 54.6204L15.2404 52.8158C14.6392 52.3939 13.8599 52.3939 13.2588 52.8158L10.687 54.6204V48.7025C11.1658 48.7963 11.6779 48.7377 12.1566 48.5385L13.9156 47.7768C14.1271 47.683 14.372 47.683 14.5836 47.7768L16.3426 48.5385C16.8213 48.7494 17.3334 48.7963 17.8121 48.7025V54.6204Z" fill="#BE868C"/>
</svg>
