<svg width="42" height="34" viewBox="0 0 42 34" fill="none" xmlns="http://www.w3.org/2000/svg">
<path d="M22.5312 5.86719C23.3625 5.34766 23.9167 4.40508 23.9167 3.34375C23.9167 1.70352 22.6115 0.375 21 0.375C19.3885 0.375 18.0833 1.70352 18.0833 3.34375C18.0833 4.4125 18.6375 5.34766 19.4688 5.86719L15.2906 14.3727C14.6271 15.7234 12.9062 16.1094 11.7469 15.1668L5.25 9.875C5.61458 9.37773 5.83333 8.76172 5.83333 8.09375C5.83333 6.45352 4.52812 5.125 2.91667 5.125C1.30521 5.125 0 6.45352 0 8.09375C0 9.73398 1.30521 11.0625 2.91667 11.0625H2.96771L6.3 29.7211C6.70104 31.9773 8.63333 33.625 10.8937 33.625H31.1062C33.3594 33.625 35.2917 31.9848 35.7 29.7211L39.0323 11.0625C39.0469 11.0625 39.0687 11.0625 39.0833 11.0625C40.6948 11.0625 42 9.73398 42 8.09375C42 6.45352 40.6948 5.125 39.0833 5.125C37.4719 5.125 36.1667 6.45352 36.1667 8.09375C36.1667 8.76172 36.3854 9.37773 36.75 9.875L30.2531 15.1668C29.0937 16.1094 27.3729 15.7234 26.7094 14.3727L22.5312 5.86719ZM8.59688 29.298L5.74583 13.3187L10.2885 17.0223C12.6073 18.9148 16.049 18.143 17.376 15.434L21 8.06406L24.624 15.4414C25.951 18.143 29.3927 18.9148 31.7115 17.0297L36.2542 13.3262L33.4031 29.298C33.199 30.4262 32.2365 31.25 31.1062 31.25H10.8937C9.76354 31.25 8.80104 30.4262 8.59688 29.298Z" fill="#BE868C"/>
</svg>
