<svg width="26" height="26" viewBox="0 0 26 26" fill="none" xmlns="http://www.w3.org/2000/svg">
<path fill-rule="evenodd" clip-rule="evenodd" d="M13 19.5C16.5898 19.5 19.5 16.5898 19.5 13C19.5 9.41015 16.5898 6.5 13 6.5C9.41015 6.5 6.5 9.41015 6.5 13C6.5 16.5898 9.41015 19.5 13 19.5ZM13 17.3333C15.3932 17.3333 17.3333 15.3932 17.3333 13C17.3333 10.6068 15.3932 8.66667 13 8.66667C10.6068 8.66667 8.66667 10.6068 8.66667 13C8.66667 15.3932 10.6068 17.3333 13 17.3333Z" fill="#777A6F"/>
<path d="M19.5003 5.41699C18.902 5.41699 18.417 5.90202 18.417 6.50033C18.417 7.09863 18.902 7.58366 19.5003 7.58366C20.0987 7.58366 20.5837 7.09863 20.5837 6.50033C20.5837 5.90202 20.0987 5.41699 19.5003 5.41699Z" fill="#777A6F"/>
<path fill-rule="evenodd" clip-rule="evenodd" d="M1.79146 4.63207C1.08301 6.0225 1.08301 7.84267 1.08301 11.483V14.5163C1.08301 18.1567 1.08301 19.9769 1.79146 21.3672C2.41464 22.5903 3.40901 23.5847 4.63207 24.2078C6.0225 24.9163 7.84267 24.9163 11.483 24.9163H14.5163C18.1567 24.9163 19.9769 24.9163 21.3672 24.2078C22.5903 23.5847 23.5847 22.5903 24.2078 21.3672C24.9163 19.9769 24.9163 18.1567 24.9163 14.5163V11.483C24.9163 7.84267 24.9163 6.0225 24.2078 4.63207C23.5847 3.40901 22.5903 2.41464 21.3672 1.79146C19.9769 1.08301 18.1567 1.08301 14.5163 1.08301H11.483C7.84267 1.08301 6.0225 1.08301 4.63207 1.79146C3.40901 2.41464 2.41464 3.40901 1.79146 4.63207ZM14.5163 3.24967H11.483C9.62709 3.24967 8.36545 3.25136 7.39026 3.33103C6.44035 3.40864 5.95458 3.54931 5.61572 3.72198C4.80035 4.13743 4.13743 4.80035 3.72198 5.61572C3.54931 5.95458 3.40864 6.44035 3.33103 7.39026C3.25136 8.36545 3.24967 9.62709 3.24967 11.483V14.5163C3.24967 16.3723 3.25136 17.6339 3.33103 18.6091C3.40864 19.559 3.54931 20.0448 3.72198 20.3837C4.13743 21.199 4.80035 21.8619 5.61572 22.2773C5.95458 22.45 6.44035 22.5908 7.39026 22.6683C8.36545 22.7479 9.62709 22.7497 11.483 22.7497H14.5163C16.3723 22.7497 17.6339 22.7479 18.6091 22.6683C19.559 22.5908 20.0448 22.45 20.3837 22.2773C21.199 21.8619 21.8619 21.199 22.2773 20.3837C22.45 20.0448 22.5908 19.559 22.6683 18.6091C22.7479 17.6339 22.7497 16.3723 22.7497 14.5163V11.483C22.7497 9.62709 22.7479 8.36545 22.6683 7.39026C22.5908 6.44035 22.45 5.95458 22.2773 5.61572C21.8619 4.80035 21.199 4.13743 20.3837 3.72198C20.0448 3.54931 19.559 3.40864 18.6091 3.33103C17.6339 3.25136 16.3723 3.24967 14.5163 3.24967Z" fill="#777A6F"/>
</svg>
