<svg xmlns="http://www.w3.org/2000/svg" viewBox="0 0 85.97 82.29"><defs><style>.cls-1,.cls-2{fill:#666665;}.cls-1{fill-rule:evenodd;}</style></defs><g id="Camada_2" data-name="Camada 2"><g id="Camada_1-2" data-name="Camada 1"><path class="cls-1" d="M43.5,75.78a2.08,2.08,0,0,0-1-.53,2,2,0,0,0-1.82.56,2.19,2.19,0,0,0-.52,1.47,4.29,4.29,0,0,0,.14,1.09,5.61,5.61,0,0,0,.35,1,5.18,5.18,0,0,0,.87,1.3,12,12,0,0,0,1.71,1.52.54.54,0,0,0,.55,0,9.89,9.89,0,0,0,1.84-1.39,3.14,3.14,0,0,0,.42-.48,3.79,3.79,0,0,0,.45-.9,6,6,0,0,0,.3-1.5c0-.23,0-.45,0-.66a2.17,2.17,0,0,0-.51-1.47,1.91,1.91,0,0,0-1.81-.56,2.07,2.07,0,0,0-1,.53ZM43,77a.58.58,0,0,0,1,0,1.33,1.33,0,0,1,.74-.81,1.08,1.08,0,0,1,1.06.17h0a1.54,1.54,0,0,1,.46,1.29,2.56,2.56,0,0,1-.11.46,3.78,3.78,0,0,1-.51,1h0a4,4,0,0,1-.52.6c-.18.2-.37.4-.58.6a11.85,11.85,0,0,1-1.08,1,10.65,10.65,0,0,1-1.4-1,4.23,4.23,0,0,1-.85-1h0a3.78,3.78,0,0,1-.47-1.49,1.57,1.57,0,0,1,.45-1.29,1.08,1.08,0,0,1,1.06-.18A1.31,1.31,0,0,1,43,77Z"/><path class="cls-2" d="M3.74,56.9l-.09-.25a7.78,7.78,0,0,0-.38-.84c-1.21-2.34.11-3.57.38-3.71.52-.26.47-1.35.47-1.35.91,2.61.16,2.5-.17,3.85a6.77,6.77,0,0,0-.19,2c.11.51.23,1,.38,1.53A21.2,21.2,0,0,0,5,60.62c.18.42.38.84.57,1.26l.32.63c.1.21.23.42.34.63s.25.45.39.68a8.13,8.13,0,0,1,0-4.45l-.12-.1c-.29-.27-.38-.65-.2-.84s.57-.13.86.14.38.65.2.84a.49.49,0,0,1-.54.06c-.57,1.59.08,4.22.36,5.21.2.31.4.61.61.91.56.8,1.16,1.59,1.79,2.35s1.33,1.49,2,2.2l.34.33a13.5,13.5,0,0,0-1.11-2.83c-1-1.91-1.89-2.18-1.82-5a4.57,4.57,0,0,0,1.16,2c.41.33,2.59,2.61,2,4.93a4.06,4.06,0,0,0-.13.87v.17c.58.54,1.17,1.07,1.78,1.57.77.63,1.58,1.22,2.4,1.78l.3.2.31.2,0,0a12,12,0,0,1-2.6-3.59h-.11a.84.84,0,0,1-.63-.6.33.33,0,0,1,.42-.4.85.85,0,0,1,.63.6.33.33,0,0,1-.17.38A16.88,16.88,0,0,0,18,75.05l.07,0,.31.18.32.18.32.17.16.08.16.08.64.32.65.3.32.14.32.14c.43.18.86.36,1.3.51l.26.09a18.48,18.48,0,0,0-2.25-2.17c-1.78-1.45-2.49-1.22-4.19-4.26a5.41,5.41,0,0,0,1.93,1.43,7.48,7.48,0,0,1,4.27,4.07,8.15,8.15,0,0,0,.46,1h0l.16,0,.65.2a20.4,20.4,0,0,0,2.55.6l.32.06.31,0,.63.08.61,0,.31,0h1a16.51,16.51,0,0,1-5-3.06.39.39,0,0,1-.1.08.91.91,0,0,1-1-.37c-.28-.36-.27-.76,0-.91a.92.92,0,0,1,1,.38.76.76,0,0,1,.18.67,19.88,19.88,0,0,0,6,3.17l.57,0,.56-.07c.19,0,.37-.06.55-.09l.28,0,.26-.06.53-.13h0a.78.78,0,0,1,.75.42c.16.28.09.55-.16.6l-.57.12c-.1,0-.19.05-.29.06l-.29,0-.59.08-.61.06a17,17,0,0,1-1.76,0,5,5,0,0,0-.43.78c-1.28,2.85-5,1.91-5.61,1.64a3.49,3.49,0,0,0-2.56.19c2.12-2.63,3.13-1.64,5.49-2a10.13,10.13,0,0,0,2.41-.65h0l-.32,0-.32,0L28,79.27l-.66-.11-.33,0L26.63,79a22.27,22.27,0,0,1-2.18-.53c-1.33-.32-4.2-.87-5.95-.25a.53.53,0,0,1-.07.6c-.22.21-.67.12-1-.2s-.41-.75-.18-1,.67-.12,1,.2l.12.14a8.16,8.16,0,0,1,3.52-.44l-.63-.27-.34-.16L20.59,77c-.23-.11-.45-.21-.67-.33l-.66-.34-.17-.09-.16-.09L18.6,76l-.33-.18L18,75.6l-.65-.39-.07,0h0a4.53,4.53,0,0,0-.91.1c-2.45.47-4.78-1.67-5.11-2.06a5,5,0,0,0-2-1.16c3,0,3.23.87,5.2,1.87a15.78,15.78,0,0,0,2.54,1l-.23-.15c-.11-.06-.21-.14-.32-.21L16,74.36a29.33,29.33,0,0,1-2.44-1.88c-.43-.36-.85-.74-1.26-1.12a19,19,0,0,0-5.76-3.12.36.36,0,0,1-.36.31A1,1,0,0,1,5.38,68c-.15-.33,0-.61.3-.63a1,1,0,0,1,.83.57,1.21,1.21,0,0,1,0,.14A12.81,12.81,0,0,1,10.92,70c-.57-.6-1.11-1.22-1.63-1.85S8.39,67,8,66.36l-.07,0A5.38,5.38,0,0,0,7,66.16,6.21,6.21,0,0,1,3,63.32,4.62,4.62,0,0,0,1.46,62c2.71.82,2.69,1.5,4.19,2.73A15.89,15.89,0,0,0,7.87,66.2l-.36-.52C7,64.86,6.47,64,6,63.18c-.1-.22-.22-.43-.32-.64l-.31-.64-.24-.55a15.38,15.38,0,0,1-3-4.53l-.14,0A1,1,0,0,1,1.37,56c0-.31.23-.49.57-.39a1,1,0,0,1,.68.75.34.34,0,0,1-.25.4,14.64,14.64,0,0,0,2.47,3.81A20.75,20.75,0,0,1,4,58.08c-.1-.4-.19-.79-.27-1.18Z"/><path class="cls-2" d="M82.45,56.9l.09-.25a6.23,6.23,0,0,1,.38-.84c1.21-2.34-.11-3.57-.38-3.71-.53-.26-.47-1.35-.47-1.35-.91,2.61-.17,2.5.17,3.85a6.7,6.7,0,0,1,.18,2c-.1.51-.23,1-.37,1.53a23.21,23.21,0,0,1-.9,2.53c-.17.42-.37.84-.57,1.26l-.31.63-.34.63-.39.68a8,8,0,0,0,0-4.45l.13-.1c.29-.27.38-.65.2-.84s-.57-.13-.86.14-.38.65-.2.84a.49.49,0,0,0,.54.06c.56,1.59-.08,4.22-.37,5.21-.19.31-.39.61-.6.91-.56.8-1.16,1.59-1.79,2.35s-1.33,1.49-2,2.2l-.34.33a13,13,0,0,1,1.11-2.83c1-1.91,1.89-2.18,1.82-5a4.57,4.57,0,0,1-1.16,2c-.41.33-2.59,2.61-2,4.93a5.87,5.87,0,0,1,.13.87v.17c-.57.54-1.17,1.07-1.78,1.57-.77.63-1.57,1.22-2.39,1.78l-.31.2a3.28,3.28,0,0,1-.31.2l0,0a12,12,0,0,0,2.6-3.59H72a.81.81,0,0,0,.62-.6c.06-.28-.13-.46-.42-.4a.86.86,0,0,0-.62.6.32.32,0,0,0,.17.38,17.09,17.09,0,0,1-3.61,4.31l-.07,0c-.11.06-.21.13-.32.18l-.31.18-.32.17L67,75.7l-.16.08-.64.32-.65.3-.32.14-.32.14c-.44.18-.87.36-1.3.51l-.27.09a18.48,18.48,0,0,1,2.25-2.17c1.78-1.45,2.5-1.22,4.2-4.26a5.41,5.41,0,0,1-1.93,1.43,7.45,7.45,0,0,0-4.27,4.07,8.15,8.15,0,0,1-.46,1h0l-.17,0-.64.2a20.54,20.54,0,0,1-2.56.6l-.31.06-.31,0-.63.08-.61,0-.31,0h-1a16.64,16.64,0,0,0,5-3.06.27.27,0,0,0,.1.08.9.9,0,0,0,1-.37c.28-.36.28-.76,0-.91a.92.92,0,0,0-1,.38.76.76,0,0,0-.18.67,20,20,0,0,1-6,3.17l-.57,0-.57-.07-.55-.09-.27,0-.27-.06L52.72,78h0a.78.78,0,0,0-.75.42c-.16.28-.09.55.16.6l.57.12c.1,0,.19.05.29.06l.29,0,.59.08.6.06a17.3,17.3,0,0,0,1.77,0,5,5,0,0,1,.43.78c1.28,2.85,5,1.91,5.6,1.64a3.51,3.51,0,0,1,2.57.19c-2.12-2.63-3.13-1.64-5.49-2a10,10,0,0,1-2.41-.65h0l.32,0,.33,0,.65-.07.66-.11.33,0,.33-.07a22.27,22.27,0,0,0,2.18-.53c1.32-.32,4.2-.87,5.95-.25a.51.51,0,0,0,.07.6c.22.21.67.12,1-.2s.4-.75.18-1-.67-.12-1,.2l-.12.14a8.24,8.24,0,0,0-3.53-.44l.64-.27.34-.16L65.6,77c.22-.11.45-.21.67-.33l.66-.34.16-.09.17-.09.33-.19.32-.18.33-.2.65-.39.06,0h0a4.55,4.55,0,0,1,.92.1c2.45.47,4.78-1.67,5.11-2.06A5,5,0,0,1,77,72.05c-3,0-3.23.87-5.2,1.87a15.78,15.78,0,0,1-2.54,1l.23-.15.31-.21.32-.22c.84-.58,1.65-1.21,2.44-1.88.43-.36.85-.74,1.26-1.12a18.87,18.87,0,0,1,5.76-3.12.35.35,0,0,0,.36.31,1,1,0,0,0,.83-.57c.14-.33,0-.61-.3-.63a1,1,0,0,0-.83.57,1.21,1.21,0,0,0-.05.14A12.81,12.81,0,0,0,75.27,70c.56-.6,1.11-1.22,1.63-1.85s.89-1.15,1.31-1.74l.07,0a5.38,5.38,0,0,1,.87-.18,6.15,6.15,0,0,0,4-2.84A4.72,4.72,0,0,1,84.73,62c-2.71.82-2.69,1.5-4.2,2.73a15.34,15.34,0,0,1-2.21,1.52c.12-.17.24-.34.35-.52a27,27,0,0,0,1.49-2.5c.11-.22.23-.43.33-.64l.31-.64.24-.55a15.38,15.38,0,0,0,3-4.53l.14,0a1,1,0,0,0,.67-.76c0-.31-.22-.49-.56-.39a1,1,0,0,0-.68.75.34.34,0,0,0,.25.4,14.43,14.43,0,0,1-2.48,3.81,19.22,19.22,0,0,0,.84-2.53c.1-.4.19-.79.27-1.18Z"/><polygon class="cls-2" points="0.64 46.26 0.49 46.05 0.37 44.75 1.45 44.06 0.09 44.19 0.4 47.56 0.7 46.88 4.2 46.55 4.62 47.17 4.29 43.7 2.93 43.82 4.12 44.3 4.25 45.7 4.14 45.94 2.43 46.1 2.35 45.28 2.99 44.77 1.4 44.92 2.12 45.31 2.2 46.12 0.64 46.26 0.64 46.26"/><path class="cls-2" d="M.06,38.84l.28.41a1.54,1.54,0,0,0-.34.89c0,.75.3,1.42,1.11,1.46a1.15,1.15,0,0,0,1.11-.77l.4-.8c.13-.26.29-.7.81-.68a.85.85,0,0,1,.8,1,1.06,1.06,0,0,1-.36.8l-1.1.47,1.6.07-.28-.4a1.5,1.5,0,0,0,.34-.93,1.35,1.35,0,0,0-1.2-1.59,1.19,1.19,0,0,0-1.18.86l-.4.79c-.18.38-.42.67-.78.65a.78.78,0,0,1-.67-.91,1.27,1.27,0,0,1,.36-.8l.9-.44-1.4-.07Z"/><path class="cls-2" d="M4.93,35.13l-.49.71-1.57-.28L3,35.07c.16-.93,0-1.72-.83-1.87S.88,33.74.71,34.67L.4,36.4l.47-.58,3.46.63.24.7.36-2Zm-4.08.06.08-.42c.1-.57.37-1,1.08-.86s.81.61.71,1.19l-.07.41-1.8-.32Z"/><path class="cls-2" d="M5.36,32.86l.48-1.46-.49.46-.84-.71L5,29.66l1.09-.09.14.62.56-1.73-.57.5-4.16.35-.29.91.87-.37L5.23,32.1l.13.76Zm-2.4-3,1.79-.15L4.33,31,3,29.82Z"/><path class="cls-2" d="M5,22.21l.14.51a1.74,1.74,0,0,0-.82.86,2,2,0,0,0,1.1,2.84,2,2,0,0,0,2.81-.78l.32.51,0-.1a.24.24,0,0,1,.35-.11.35.35,0,0,1,.15.51.52.52,0,0,1-.19.23.52.52,0,0,0,.33-.31A.59.59,0,0,0,9,25.51a.45.45,0,0,0-.59.16l-.13-.19a1.81,1.81,0,0,0-.64-2.13A1.64,1.64,0,0,1,8,25.2c-.44.9-1.4,1-2.4.52s-1.47-1.35-1.08-2.14a1.3,1.3,0,0,1,.74-.69l1.15,0L5,22.21Z"/><path class="cls-2" d="M8.1,21.25A2,2,0,1,0,10.37,18,2,2,0,1,0,8.1,21.25Zm.41-.59c-1-.7-1.38-1.55-.93-2.19s1.37-.6,2.38.11,1.38,1.56.93,2.2-1.37.59-2.38-.12Z"/><path class="cls-2" d="M14.15,13.92a.81.81,0,0,0,1.15,0,.81.81,0,0,0-1.12-1.18.81.81,0,0,0,0,1.15Z"/><path class="cls-2" d="M20.62,11.18l1.72-1.07c.8-.5,1.22-1.18.79-1.87a1.17,1.17,0,0,0-1.51-.33l0,0a1,1,0,0,0,.25-1.26c-.38-.61-1-.55-1.78-.08l-1.69,1,.75,0,1.86,3-.37.65Zm.51-2.81a.91.91,0,0,1,1.39.25A.89.89,0,0,1,22.16,10l-.38.24h-.27l-.93-1.49.55-.34ZM19.65,7.22,19.78,7l.36-.23A.75.75,0,0,1,21.31,7,.78.78,0,0,1,21,8.17l-.55.35-.81-1.3Z"/><polygon class="cls-2" points="24.79 4.4 24.94 4.18 26.13 3.65 27.13 4.45 26.57 3.2 23.48 4.59 24.22 4.65 25.67 7.86 25.22 8.45 28.4 7.02 27.84 5.77 27.77 7.05 26.5 7.63 26.23 7.6 25.52 6.03 26.27 5.7 26.96 6.13 26.31 4.68 26.17 5.49 25.43 5.82 24.79 4.4 24.79 4.4"/><polygon class="cls-2" points="30.78 1.77 28.88 2.34 29.6 2.49 30.61 5.87 30.08 6.4 33.39 5.41 32.98 4.04 32.73 5.37 31.45 5.75 31.2 5.69 30.2 2.32 30.78 1.77 30.78 1.77"/><polygon class="cls-2" points="35.66 1.01 35.87 0.85 37.15 0.64 37.91 1.68 37.7 0.32 34.35 0.86 35.05 1.11 35.61 4.58 35.02 5.04 38.46 4.49 38.24 3.14 37.85 4.36 36.46 4.58 36.22 4.49 35.94 2.78 36.75 2.65 37.31 3.26 37.05 1.68 36.71 2.43 35.91 2.56 35.66 1.01 35.66 1.01"/><polygon class="cls-2" points="40.37 4.32 43.7 4.23 43.66 2.87 43.1 4.02 41.23 4.07 43.55 0 40.43 0.08 40.46 1.45 41.02 0.29 42.69 0.25 40.37 4.32 40.37 4.32"/><path class="cls-2" d="M45.23,4.25l1.53.17L46.21,4l.53-1,1.56.17.3,1L48,4.56l1.81.21-.6-.47L48.05.3,47.1.2l.53.78L46,4l-.72.28Zm2.5-3L48.23,3l-1.37-.15.87-1.57Z"/><path class="cls-2" d="M59.49,4.69,58,4.16l.39.55a5.2,5.2,0,0,1-1,1,7.16,7.16,0,0,1-.52-1.77c.65-.1,1.27-.13,1.42-.55s-.14-.77-.63-1A1,1,0,0,0,56.37,3a2.33,2.33,0,0,0-.08.88c-.69.1-1.4.26-1.65,1a1.17,1.17,0,0,0,.8,1.53A2.06,2.06,0,0,0,57,6.23a1.94,1.94,0,0,0,.88,1c.76.27,1-.74,1-.74a.52.52,0,0,1-.61.27,1.65,1.65,0,0,1-.68-.8,5.14,5.14,0,0,0,1.11-1.09l.85-.14ZM55.91,6.07a.88.88,0,0,1-.59-1.15,1.39,1.39,0,0,1,1-.87,6.63,6.63,0,0,0,.56,2,1.3,1.3,0,0,1-1,.06Zm1-3.06c.14-.4.42-.5.7-.4a.42.42,0,0,1,.27.58c-.13.36-.53.48-1,.56a1.86,1.86,0,0,1,0-.74Z"/><path class="cls-2" d="M62.77,9.45l1.7,1.09c.8.51,1.59.6,2-.09S66.15,9,66.15,9l0,0a1,1,0,0,0,1.25-.32c.39-.6,0-1.17-.69-1.64L65.06,5.89l.35.65-1.9,3-.74-.05Zm2.76-.74a.89.89,0,0,1,.37,1.35.9.9,0,0,1-1.36.26l-.38-.25L64,9.84l1-1.48.55.35Zm.4-1.84.27,0,.35.23a.75.75,0,0,1,.3,1.16.79.79,0,0,1-1.19.24l-.55-.36.82-1.29Z"/><polygon class="cls-2" points="70.69 10.3 70.94 10.35 71.94 11.2 71.64 12.45 72.53 11.4 69.95 9.21 70.21 9.9 67.93 12.58 67.2 12.43 69.86 14.69 70.75 13.65 69.56 14.14 68.49 13.23 68.4 12.98 69.52 11.67 70.14 12.2 70.05 13.01 71.08 11.8 70.29 12.02 69.67 11.5 70.69 10.3 70.69 10.3"/><polygon class="cls-2" points="71.19 15.91 72.22 17.13 72.07 16.4 74.48 14.36 72.71 17.86 76.6 16.65 74.09 18.78 73.4 18.52 74.64 19.98 74.49 19.25 77.17 16.98 77.87 17.24 77.02 16.24 73.69 17.27 73.69 17.27 75.25 14.16 74.41 13.17 74.56 13.9 71.88 16.18 71.19 15.91 71.19 15.91"/><polygon class="cls-2" points="81.07 23.18 81.29 23.33 81.88 24.49 81.13 25.53 82.35 24.91 80.82 21.89 80.8 22.63 77.65 24.21 77.04 23.79 78.61 26.91 79.83 26.29 78.55 26.28 77.92 25.03 77.93 24.77 79.47 23.99 79.84 24.72 79.44 25.43 80.86 24.71 80.04 24.61 79.68 23.89 81.07 23.18 81.07 23.18"/><path class="cls-2" d="M84.32,29.9l-.4-.28a1.55,1.55,0,0,0,0-1c-.24-.71-.79-1.21-1.56-.95a1.17,1.17,0,0,0-.76,1.12l-.07.88c0,.3,0,.77-.51.93A.85.85,0,0,1,79.89,30a1.06,1.06,0,0,1,0-.88l.85-.83-1.51.51.4.27a1.52,1.52,0,0,0,0,1,1.36,1.36,0,0,0,1.7,1.05,1.2,1.2,0,0,0,.79-1.23l.08-.89c0-.42.15-.77.49-.89a.8.8,0,0,1,1,.61,1.27,1.27,0,0,1,0,.87l-.68.75,1.33-.45Z"/><polygon class="cls-2" points="85.59 35.96 84.93 32.47 83.59 32.73 84.82 33.09 84.98 33.95 81.4 34.64 80.91 34 81.29 36.02 81.51 35.24 85.1 34.56 85.26 35.43 84.25 36.22 85.59 35.96 85.59 35.96"/><path class="cls-2" d="M81.59,37.78l.08,1.53.29-.6,1,.37.08,1.57-1,.47-.35-.54.09,1.82.35-.67,3.77-1.8,0-1-.69.65L82,38.45l-.39-.67Zm3.33,2-1.63.77-.07-1.37,1.7.6Z"/><path class="cls-2" d="M81.42,46.93,81.3,48l.41-.54,1.79-1.15c0,.64.34,1.11,1,1.18.81.09,1.22-.62,1.32-1.56L86,44.21l-.42.61-3.5-.38-.29-.69-.21,1.91.43-.6,1.59.17,0,.4-2.1,1.3Zm4.19-1.48,0,.42c-.06.59-.31,1-1,.94s-.85-.55-.79-1.14l0-.42,1.81.2Z"/><path class="cls-2" d="M41.58,15a.08.08,0,0,0,0-.08.09.09,0,0,0-.1,0l-.85.77a5.54,5.54,0,0,0-3-.79c-2.52,0-3.72,1.37-3.72,2.9a2.58,2.58,0,0,0,1.41,2.34,12.77,12.77,0,0,0,2.39,1.07h0C40.14,22,41,22.7,41,24.3c0,1.4-1.15,2.36-2.82,2.36a4.17,4.17,0,0,1-2.92-1.05l-1.17-2.8a.09.09,0,0,0-.1,0,.08.08,0,0,0-.07.08v4.45a.1.1,0,0,0,.06.09.08.08,0,0,0,.09,0l.82-.93a5.49,5.49,0,0,0,3.29,1c2.52,0,3.91-1.44,3.91-3.26,0-2.41-1.93-3.25-4.22-4h0a9.06,9.06,0,0,1-2-.87,1.77,1.77,0,0,1-1-1.59c0-1.05,1-2,2.64-2a4.22,4.22,0,0,1,2.65.87l1.17,2.44a.12.12,0,0,0,.1.05.1.1,0,0,0,.07-.09V15Z"/><path class="cls-2" d="M43.34,19.33s0,.06,0,.1a.08.08,0,0,0,.08.05H45v5.91a2.06,2.06,0,0,0,.58,1.69,1.43,1.43,0,0,0,1,.3,1.42,1.42,0,0,0,1-.46,2.78,2.78,0,0,0,.61-1,.09.09,0,0,0-.17-.06,1.38,1.38,0,0,1-1.1.66c-.58,0-.82-.51-.82-1.18V19.48H48.6a.09.09,0,0,0,.09-.09v-.54a.09.09,0,0,0-.09-.09H46.12V16.94a.1.1,0,0,0,0-.08.12.12,0,0,0-.1,0l-2.63,2.45Z"/><path class="cls-1" d="M49.94,26.2a1,1,0,1,0,1-1,1,1,0,0,0-1,1Zm.18,0a.82.82,0,1,1,.82.83.82.82,0,0,1-.82-.83Z"/><path class="cls-2" d="M49.94,26.2a1,1,0,1,0,1-1,1,1,0,0,0-1,1Z"/><path class="cls-2" d="M23.06,33.07,21.7,34.42a7.28,7.28,0,0,0-4.44-1.35c-4.54,0-7.78,3.21-7.78,8.51,0,4.81,3.21,8.27,7.78,8.27,5.15,0,6.17-4.07,6.17-4.07A6.43,6.43,0,0,1,17.75,49c-3.7,0-6.91-2.59-6.91-7.89,0-4.69,3.08-7.28,6.42-7.28a6,6,0,0,1,4.19,1.6l1.61,3.7v-6Z"/><path class="cls-2" d="M34.65,42.82c0-2.72-1.11-4.82-4.24-4.82C27.47,38,25,40.32,25,43.93c0,3.33,2,5.92,5.18,5.92a4.56,4.56,0,0,0,4.44-3.58,4.39,4.39,0,0,1-3.82,2.47c-2.47,0-4.57-1.53-4.57-5.21a5.54,5.54,0,0,1,0-.71ZM30.36,38.6A2.68,2.68,0,0,1,33.3,41c0,1-.87,1.12-2.1,1.12H26.41a4.2,4.2,0,0,1,3.95-3.48Z"/><path class="cls-2" d="M41.47,38.6c2.09,0,2.31,1.25,2.31,1.5s-.22.47-.22,1a.87.87,0,0,0,.94.92c.62,0,.94-.5.94-1.14C45.44,39.53,44,38,41.51,38c-2.93,0-5.38,2.35-5.38,5.93,0,3.33,2,5.92,5.19,5.92a4.56,4.56,0,0,0,4.44-3.58,4.39,4.39,0,0,1-3.83,2.47c-2.46,0-4.56-1.53-4.56-5.21,0-3.38,2.37-4.93,4.1-4.93Z"/><path class="cls-2" d="M47,39l3.21-1V48.37l2,1.11H47l2-1.11V39.61L47,39ZM48.1,34.3a1.24,1.24,0,1,1,1.24,1.24A1.23,1.23,0,0,1,48.1,34.3Z"/><polygon class="cls-2" points="55.14 33.44 55.14 48.37 53.16 49.48 58.34 49.48 56.37 48.37 56.37 31.83 53.16 32.82 55.14 33.44 55.14 33.44"/><path class="cls-2" d="M59.46,39l3.2-1V48.37l2,1.11H59.46l2-1.11V39.61l-2-.62Zm1.11-4.69a1.23,1.23,0,1,1,1.23,1.24,1.22,1.22,0,0,1-1.23-1.24Z"/><path class="cls-2" d="M69.06,43.53c-1.68.59-3.19,1.75-3.19,3.48a2.64,2.64,0,0,0,2.81,2.84,4.49,4.49,0,0,0,2.4-.87l1.82-1.2c0,1.3,0,2.07.87,2.07s2.59-2.1,2.59-2.1l-2.22.86v-7c0-2.1-.89-3.58-3.58-3.58-1.48,0-4.27,1.36-4.27,2.89,0,.72.42,1,.89,1s.89-.27.89-1c0-.35,0-.59,0-.79,0-.62.79-1.36,2.29-1.36s2.59.65,2.59,2.84v.62l-3.84,1.33ZM71.37,48a4,4,0,0,1-2.29.94,1.91,1.91,0,0,1-1.9-2c0-1.36.62-2.2,2.76-3l3-1V47l-1.53,1Z"/><path class="cls-2" d="M23.06,33.07,21.7,34.42a7.28,7.28,0,0,0-4.44-1.35c-4.54,0-7.78,3.21-7.78,8.51,0,4.81,3.21,8.27,7.78,8.27,5.15,0,6.17-4.07,6.17-4.07A6.43,6.43,0,0,1,17.75,49c-3.7,0-6.91-2.59-6.91-7.89,0-4.69,3.08-7.28,6.42-7.28a6,6,0,0,1,4.19,1.6l1.61,3.7v-6Z"/><path class="cls-2" d="M34.65,42.82c0-2.72-1.11-4.82-4.24-4.82C27.47,38,25,40.32,25,43.93c0,3.33,2,5.92,5.18,5.92a4.56,4.56,0,0,0,4.44-3.58,4.39,4.39,0,0,1-3.82,2.47c-2.47,0-4.57-1.53-4.57-5.21a5.54,5.54,0,0,1,0-.71ZM30.36,38.6A2.68,2.68,0,0,1,33.3,41c0,1-.87,1.12-2.1,1.12H26.41a4.2,4.2,0,0,1,3.95-3.48Z"/><path class="cls-2" d="M41.47,38.6c2.09,0,2.31,1.25,2.31,1.5s-.22.47-.22,1a.87.87,0,0,0,.94.92c.62,0,.94-.5.94-1.14C45.44,39.53,44,38,41.51,38c-2.93,0-5.38,2.35-5.38,5.93,0,3.33,2,5.92,5.19,5.92a4.56,4.56,0,0,0,4.44-3.58,4.39,4.39,0,0,1-3.83,2.47c-2.46,0-4.56-1.53-4.56-5.21,0-3.38,2.37-4.93,4.1-4.93Z"/><path class="cls-2" d="M47,39l3.21-1V48.37l2,1.11H47l2-1.11V39.61L47,39ZM48.1,34.3a1.24,1.24,0,1,1,1.24,1.24A1.23,1.23,0,0,1,48.1,34.3Z"/><polygon class="cls-2" points="55.14 33.44 55.14 48.37 53.16 49.48 58.34 49.48 56.37 48.37 56.37 31.83 53.16 32.82 55.14 33.44 55.14 33.44"/><path class="cls-2" d="M59.46,39l3.2-1V48.37l2,1.11H59.46l2-1.11V39.61l-2-.62Zm1.11-4.69a1.23,1.23,0,1,1,1.23,1.24,1.22,1.22,0,0,1-1.23-1.24Z"/><path class="cls-2" d="M69.06,43.53c-1.68.59-3.19,1.75-3.19,3.48a2.64,2.64,0,0,0,2.81,2.84,4.49,4.49,0,0,0,2.4-.87l1.82-1.2c0,1.3,0,2.07.87,2.07s2.59-2.1,2.59-2.1l-2.22.86v-7c0-2.1-.89-3.58-3.58-3.58-1.48,0-4.27,1.36-4.27,2.89,0,.72.42,1,.89,1s.89-.27.89-1c0-.35,0-.59,0-.79,0-.62.79-1.36,2.29-1.36s2.59.65,2.59,2.84v.62l-3.84,1.33ZM71.37,48a4,4,0,0,1-2.29.94,1.91,1.91,0,0,1-1.9-2c0-1.36.62-2.2,2.76-3l3-1V47l-1.53,1Z"/><polygon class="cls-2" points="23 57.5 23 57.98 20.88 57.98 20.88 59.45 22.6 59.45 22.6 59.92 20.88 59.92 20.88 61.43 23 61.43 23 61.92 20.28 61.92 20.28 57.5 23 57.5 23 57.5"/><path class="cls-2" d="M27.17,58.19a.18.18,0,0,1-.05.07l-.08,0a.27.27,0,0,1-.13-.05.83.83,0,0,0-.17-.12,1.27,1.27,0,0,0-.26-.11,1,1,0,0,0-.36-.06,1,1,0,0,0-.35.06.65.65,0,0,0-.26.14.82.82,0,0,0-.16.22.76.76,0,0,0-.05.27.52.52,0,0,0,.09.31.83.83,0,0,0,.24.21l.34.15.39.13.39.15a1.94,1.94,0,0,1,.34.21,1,1,0,0,1,.33.78,1.42,1.42,0,0,1-.1.55,1.21,1.21,0,0,1-.29.44,1.23,1.23,0,0,1-.46.3,1.81,1.81,0,0,1-.63.1,1.94,1.94,0,0,1-.78-.15,1.9,1.9,0,0,1-.61-.42l.18-.29a.1.1,0,0,1,.06-.05.11.11,0,0,1,.08,0,.26.26,0,0,1,.14.07l.21.16.3.15a1.16,1.16,0,0,0,.44.07,1.12,1.12,0,0,0,.38-.06.73.73,0,0,0,.28-.17A.76.76,0,0,0,26.8,61a.88.88,0,0,0,.06-.33.58.58,0,0,0-.09-.33.83.83,0,0,0-.24-.21,1.52,1.52,0,0,0-.34-.15l-.39-.12-.39-.15a1.48,1.48,0,0,1-.34-.21,1.07,1.07,0,0,1-.23-.34,1.15,1.15,0,0,1-.1-.49,1.18,1.18,0,0,1,.1-.45,1,1,0,0,1,.26-.39,1.32,1.32,0,0,1,.43-.27,1.5,1.5,0,0,1,.58-.1,2.11,2.11,0,0,1,.68.11,1.72,1.72,0,0,1,.53.34l-.15.29Z"/><path class="cls-2" d="M31.4,60.32a1.09,1.09,0,0,1,.08.15l.06.17a1.22,1.22,0,0,1,.07-.17l.07-.15,1.5-2.72c0-.05,0-.08.08-.09h.57v4.42H33.3V58.67a.71.71,0,0,1,0-.14.76.76,0,0,1,0-.15L31.8,61.14a.24.24,0,0,1-.21.14H31.5a.25.25,0,0,1-.22-.14l-1.55-2.77a.78.78,0,0,1,0,.16v3.39h-.52V57.5h.56a.19.19,0,0,1,.09.09l1.52,2.72Z"/><path class="cls-2" d="M39.59,61.92h-.46a.22.22,0,0,1-.13,0,.28.28,0,0,1-.08-.11l-.41-1.06h-2l-.42,1.06a.23.23,0,0,1-.07.1.21.21,0,0,1-.13.05h-.46l1.76-4.42h.61l1.77,4.42Zm-2.9-1.64h1.65l-.69-1.8a2.35,2.35,0,0,1-.13-.42c0,.08-.05.16-.07.23s0,.14-.06.19l-.7,1.8Z"/><polygon class="cls-2" points="41.79 61.41 43.71 61.41 43.71 61.92 41.2 61.92 41.2 57.5 41.79 57.5 41.79 61.41 41.79 61.41"/><polygon class="cls-2" points="47.89 57.5 47.89 58 46.47 58 46.47 61.92 45.87 61.92 45.87 58 44.43 58 44.43 57.5 47.89 57.5 47.89 57.5"/><polygon class="cls-2" points="52.3 57.5 52.3 57.98 50.17 57.98 50.17 59.45 51.89 59.45 51.89 59.92 50.17 59.92 50.17 61.43 52.3 61.43 52.3 61.92 49.57 61.92 49.57 57.5 52.3 57.5 52.3 57.5"/><path class="cls-2" d="M54.86,60.07v1.85h-.59V57.5h1.25a2.6,2.6,0,0,1,.72.08,1.38,1.38,0,0,1,.5.25.85.85,0,0,1,.3.38,1.36,1.36,0,0,1,.09.51,1.27,1.27,0,0,1-.07.44,1.17,1.17,0,0,1-.21.36,1.39,1.39,0,0,1-.35.28,1.5,1.5,0,0,1-.45.17.69.69,0,0,1,.19.19l1.29,1.76H57a.27.27,0,0,1-.24-.13l-1.15-1.58a.38.38,0,0,0-.11-.11.44.44,0,0,0-.19,0Zm0-.43h.63a1.31,1.31,0,0,0,.46-.07.88.88,0,0,0,.33-.18.6.6,0,0,0,.2-.27.86.86,0,0,0,.07-.36.7.7,0,0,0-.26-.59,1.26,1.26,0,0,0-.77-.2h-.66v1.67Z"/><polygon class="cls-2" points="59.94 61.92 59.34 61.92 59.34 57.5 59.94 57.5 59.94 61.92 59.94 61.92"/><path class="cls-2" d="M65.8,61.92h-.46a.25.25,0,0,1-.13,0,.26.26,0,0,1-.07-.11l-.42-1.06h-2l-.41,1.06a.25.25,0,0,1-.08.1.17.17,0,0,1-.13.05h-.46l1.77-4.42H64l1.76,4.42Zm-2.89-1.64h1.65l-.7-1.8a3.6,3.6,0,0,1-.13-.42l-.06.23c0,.07-.05.14-.07.19l-.69,1.8Z"/></g></g></svg>