<svg width="24" height="24" viewBox="0 0 24 24" fill="none" xmlns="http://www.w3.org/2000/svg">
<path d="M17.6103 16.907C17.6103 16.905 17.6103 16.903 17.6103 16.9C17.6103 16.56 17.4233 16.264 17.1463 16.109L17.1413 16.107C15.2194 14.976 12.9065 14.307 10.4386 14.307C10.3396 14.307 10.2416 14.308 10.1426 14.31H10.1576C8.55964 14.326 7.01571 14.518 5.53177 14.869L5.67376 14.841C5.30078 14.888 5.01479 15.204 5.01479 15.587C5.01479 15.611 5.01579 15.634 5.01779 15.657V15.654V15.666C5.01779 15.871 5.09879 16.057 5.22978 16.194C5.36178 16.334 5.54777 16.421 5.75476 16.421C5.76476 16.421 5.77576 16.421 5.78576 16.42C6.01075 16.386 6.20474 16.343 6.39573 16.287L6.36373 16.295C7.49969 16.04 8.80763 15.888 10.1496 15.873H10.1596C10.2346 15.871 10.3236 15.87 10.4126 15.87C12.6055 15.87 14.6584 16.469 16.4173 17.512L16.3633 17.482C16.5093 17.579 16.6863 17.641 16.8763 17.654H16.8793C17.2843 17.654 17.6143 17.326 17.6143 16.92C17.6143 16.914 17.6143 16.909 17.6143 16.903L17.6103 16.907ZM19.1102 13.547C19.1102 13.537 19.1102 13.526 19.1102 13.515C19.1102 13.12 18.8912 12.775 18.5682 12.597L18.5632 12.594C16.2053 11.207 13.3684 10.387 10.3406 10.387C10.2226 10.387 10.1036 10.388 9.98658 10.391H10.0046C8.31865 10.392 6.68872 10.631 5.14679 11.078L5.26978 11.047C4.8378 11.136 4.51681 11.513 4.51681 11.966C4.51681 11.995 4.51781 12.023 4.52081 12.051C4.52081 12.567 4.93879 12.985 5.45477 12.985H5.45877C5.67676 12.957 5.87276 12.913 6.06175 12.854L6.03775 12.861C7.2057 12.533 8.54664 12.345 9.93159 12.345H9.95859H9.95759C10.0566 12.343 10.1736 12.341 10.2916 12.341C12.9745 12.341 15.4894 13.062 17.6523 14.32L17.5823 14.282C17.7513 14.39 17.9533 14.463 18.1702 14.485H18.1762H18.1802C18.6962 14.485 19.1142 14.067 19.1142 13.551C19.1142 13.55 19.1142 13.548 19.1142 13.547H19.1102ZM20.8001 9.673C20.8011 9.658 20.8011 9.639 20.8011 9.621C20.8011 9.172 20.5501 8.782 20.1812 8.582L20.1752 8.579C18.8552 7.821 17.3243 7.225 15.7033 6.872L15.5974 6.853C14.0014 6.481 12.1685 6.267 10.2856 6.267C10.2686 6.267 10.2516 6.267 10.2356 6.267H10.2386C10.1546 6.266 10.0546 6.265 9.95459 6.265C8.03167 6.265 6.17074 6.534 4.40882 7.036L4.55081 7.001C4.30782 7.075 4.10283 7.215 3.95084 7.399L3.94884 7.401C3.79884 7.592 3.70785 7.837 3.70785 8.103C3.70785 8.123 3.70785 8.142 3.70885 8.162V8.159V8.188C3.70885 8.493 3.83084 8.77 4.02983 8.972C4.22582 9.175 4.50081 9.3 4.8048 9.3H4.8368H4.8348C5.06479 9.28 5.27778 9.236 5.47977 9.169L5.45977 9.175C6.81872 8.806 8.37865 8.595 9.98858 8.595C10.0836 8.595 10.1786 8.596 10.2736 8.597H10.2596H10.3036C12.0025 8.597 13.6554 8.791 15.2424 9.157L15.0954 9.128C16.5893 9.441 17.9143 9.955 19.1232 10.647L19.0562 10.612C19.2342 10.723 19.4492 10.792 19.6792 10.799H19.6812H19.6912C19.9952 10.799 20.2702 10.677 20.4691 10.479C20.6741 10.285 20.8021 10.01 20.8021 9.706C20.8021 9.694 20.8021 9.683 20.8011 9.671V9.673H20.8001ZM24 12.001V12.091C24 14.278 23.402 16.325 22.3601 18.078L22.3901 18.024C21.3231 19.848 19.8462 21.325 18.0792 22.361L18.0232 22.391C16.2943 23.403 14.2174 24 11.9995 24C9.78159 24 7.70468 23.403 5.91875 22.36L5.97575 22.391C4.15183 21.324 2.67489 19.847 1.63893 18.08L1.60893 18.024C0.596975 16.295 0 14.218 0 12C0 9.782 0.596975 7.705 1.63993 5.919L1.60893 5.976C2.67589 4.152 4.15283 2.675 5.91975 1.639L5.97575 1.609C7.70468 0.597 9.78159 0 11.9995 0C14.2174 0 16.2943 0.597 18.0802 1.64L18.0232 1.609C19.8472 2.676 21.3241 4.153 22.3601 5.92L22.3901 5.976C23.402 7.675 24 9.722 24 11.909V12.005V12V12.001Z" fill="white"/>
</svg>
